<?xml version="1.0" encoding="UTF-8"?>
<!DOCTYPE svg PUBLIC "-//W3C//DTD SVG 1.1//EN" "http://www.w3.org/Graphics/SVG/1.1/DTD/svg11.dtd">
<!-- Creator: CorelDRAW 2020 (64-Bit) -->
<svg xmlns="http://www.w3.org/2000/svg" xml:space="preserve" width="94.6279mm" height="137.129mm" version="1.1" style="shape-rendering:geometricPrecision; text-rendering:geometricPrecision; image-rendering:optimizeQuality; fill-rule:evenodd; clip-rule:evenodd"
viewBox="0 0 9462.78 13712.9"
 xmlns:xlink="http://www.w3.org/1999/xlink"
 xmlns:xodm="http://www.corel.com/coreldraw/odm/2003">
 <defs>
  <style type="text/css">
   <![CDATA[
    .str0 {stroke:#FEFEFE;stroke-width:150;stroke-miterlimit:22.9256}
    .str1 {stroke:#FEFEFE;stroke-width:20;stroke-miterlimit:22.9256}
    .fil2 {fill:none}
    .fil1 {fill:#000066}
    .fil0 {fill:#52658C}
   ]]>
  </style>
 </defs>
 <g id="Capa_x0020_1">
  <metadata id="CorelCorpID_0Corel-Layer"/>
  <path class="fil0 str0" d="M950.06 13635.15c20.12,-3.27 38.68,4.7 56.45,2.29 25.9,-3.52 5.09,-54 40.78,-47.07 48.45,9.4 395.99,-153.71 426.81,-180.08 15.48,-13.26 26.11,-48.5 43.72,-52.62 17.2,-4.04 34.11,8.46 48.62,-9.81 67.55,-84.98 82.78,-271.24 119.43,-370.29 3.06,-8.27 131.08,-137.97 69.17,-187.28 -12.34,-9.83 -33.08,-18.24 -47.64,-28.11 -23.48,-15.91 -49.13,-54.19 -75.7,-59.8 -31.99,-6.76 -69.18,11.15 -69.18,-36.61 1.82,-28.02 -49.93,-24.38 -65.91,-37.26 -8.71,-7.03 -9.33,-18.68 -20.23,-24.84 -14.4,-8.15 -41.18,-11.27 -46.33,-31.37 -7.21,-28.12 -40.53,-139.01 -53.84,-156.23 -8.54,-11.84 -21.52,-38.63 -28.07,-53.27 -19.89,-44.41 -8.87,-74.76 22.19,-107.86 39.28,-41.83 24.61,-53.59 93.33,-94.77 4.76,-4.04 30.99,-18.32 30.99,-5.23 0,8.45 -7.13,60.29 7.51,52.29l121.38 -66.35c-23.77,-40.32 -14.35,-74.41 -58.08,-67.32 -21.16,3.43 -1.82,-34.09 2.29,-41.51 9.08,-16.45 -29.37,-167.24 -29.37,-195.77 0,-33.05 16.57,-63.67 18.6,-97.07 9.34,-21.2 -0.87,-274 71.46,-201.32 39.93,40.08 43.89,-42.19 201.33,1.3 15.09,-19.79 10.77,-30.7 10.77,-54.25 1.68,-17.73 4.22,-41.56 1.95,-58.51 -1.88,-14.08 -9.28,-25.57 -8.81,-40.19 1.34,-41.62 13.23,-332.26 15.01,-341.21 2.52,-12.72 12.96,-26.54 16.97,-40.21 3.97,-13.52 6.85,-36.53 6.85,-50.65 15.59,-53.8 30.69,-117.74 57.11,-168.64 36.33,-70 -35.5,-65.9 -68.85,-111.46 -32.9,-23.19 -55.8,-60.74 -91.7,-80.39 -61.74,-33.78 -94.39,-118.92 -87.44,-189.89 3.81,-38.91 -70.74,-36.78 -77.01,-53.27 -10.17,-26.79 -5.68,-24.53 -27.74,-45.44 -37.58,-35.64 24.72,-159.28 20.23,-164.06 -10.69,-11.4 -28.56,-16.51 -27.73,-35.62 0.5,-11.49 16.06,-19.79 22.51,-27.79 71.34,-88.29 111.27,-75.3 129.87,-100.66 6.49,-8.86 2.27,-18.93 6.52,-27.45 1.51,-3 43.1,-50.52 23.18,-47.72l-46.34 6.53c-13.36,1.88 -21.4,17.77 -32.96,24.19 -0.58,0.33 -131.52,-48.1 -139.65,-57.85 -16.93,-20.27 12.16,-40.08 13.7,-60.79 4.13,-55.56 8.26,-111.12 12.4,-166.68 0.09,-3.53 -29.49,-37.01 2.28,-46.74 6.76,-2.07 21.45,-3.2 23.17,-11.76 -5.25,-16.32 -13.56,-23.08 -30.02,-28.77 -19.49,-6.73 -58.11,-42 -52.53,-64.05 8.72,-34.54 32.21,13.57 46.01,25.17 13.77,11.56 32.74,15.48 44.37,27.12 10.65,10.65 34.3,35.78 36.88,49.35 7.53,39.66 143.01,-6.8 173.26,41.83 6.61,19.86 27.26,40.73 40.79,56.55 9.91,11.57 6.99,41.8 14.36,57.52 22.74,48.47 112.11,83.48 158.58,95.11 39.88,8.41 30.03,18.19 52.21,28.1 21.66,9.68 54.7,4.23 80.92,13.73 37.09,13.42 73.74,-1.48 97.24,33.34 14.53,21.53 29,15.34 46.33,3.59 80.44,-54.44 112.41,-36.13 183.39,15.04 29.33,21.15 50.56,9.47 81.9,9.47 101.68,0 207.24,-16.69 305.74,-15.36l142.6 1.97 92.99 3.59c46.41,5.18 185.38,8.9 223.84,-9.8 30.5,-14.85 58.82,-11.45 92.02,-13.41 62.7,-17.62 138.49,7.1 199.04,-5.55 35.37,-7.4 61.56,-21.45 98.88,-25.17 34.38,-3.43 61.5,-8.57 92.99,-24.18l183.06 -25.5c38.55,-5.36 69.08,-18.46 104.74,-20.59 36.9,-2.2 67.92,1.53 103.44,-14.38 31.07,-8.88 63.11,-9.54 95.6,-16.66l320.76 -70.27 197.73 -29.42c83.81,-12.47 233.87,-18.64 309.99,-52.62 24.71,-11.02 42.54,-42.42 71.79,-43.46 19.99,-0.72 35.98,2.57 55.8,-3.93 28.55,-9.37 54.38,-17.84 85.16,-14.38 14.27,1.61 316.03,-79.03 324.67,-76.15 30.16,10.05 98.1,-18.11 128.57,-29.42 27.34,-15.65 56.84,-24.77 88.42,-19.93 22.6,3.47 46.84,-8.75 67.55,-16.67 34.5,-13.2 91.03,-3.62 117.47,-27.78 8.06,-7.37 316.09,-123.31 339.68,-133.02l138.02 -56.87c37.86,-21.65 79.96,-9.51 120.41,-23.85 49.49,-17.56 89.41,-44.25 143.25,-54.59 126.27,-44.54 279.61,-73.88 390.9,-152.63 61.77,-25.14 110.74,-79.8 179.47,-87.59 34.21,-3.87 67.35,-36.17 103.11,-46.4 39.45,-11.28 55.08,-44.54 89.41,-61.78 54.3,-6.72 97.94,-49.02 150.42,-65.69 8.39,-2.67 200.1,-121.86 211.45,-131.71 58.84,-51.07 149.57,-110.26 177.51,-187.27 16,-30.21 49.29,-32.3 75.7,-49.35 22.35,-14.44 9.91,-26.43 2.93,-43.15 -4.24,-10.17 8.77,-20.27 6.86,-32.02 -3.23,-19.93 8.48,-31.22 8.48,-49.03 0,-72.74 -6.48,-156.78 8.49,-230.09 6.4,-31.35 14.95,-51.47 32.95,-78.43 8.23,-11.47 12.44,-44.47 16.97,-59.82 0.81,-2.75 43.87,-63.39 50.9,-73.86 10.54,-15.67 29.81,-15.09 32.96,-36.6 12.14,-16.02 147.96,-164.81 165.11,-173.88 24.23,-12.79 26.5,-22.5 38.83,-45.43 11.26,-20.94 150.07,-158.22 179.47,-189.56 27.85,-29.7 34.56,-71.7 66.89,-96.41 24.62,-18.84 37.3,-71.38 51.88,-98.7 36.41,-36.47 29.28,-97.85 63.95,-136.29 22.71,-25.17 113.93,-181 128.89,-218.98 14.93,-37.9 54.4,-48.42 67.87,-90.86 5.03,-15.85 22.07,-25.49 31,-38.89 58.08,-87.14 115.35,-209.46 182.73,-310.81 14.24,-10.19 30.4,-49.88 40.14,-66.02 20.25,-33.59 34.26,-65.86 29.69,-105.89 -10.6,-92.88 -7.39,-261.72 -11.42,-363.44 1.58,-16.26 -3.47,-39.78 -7.51,-55.56 -7.59,-29.69 -1.96,-63.72 -1.96,-94.78 0,-31.92 -13.5,-75.87 -6.2,-105.56 9.64,-33.27 -6.86,-107.1 -12.72,-142.5 -7.76,-46.95 -21.58,-89.08 -44.05,-131.39 -6.73,-8.86 -55.61,-82.58 -62,-56.54 -6.52,26.57 1.69,69.39 -42.74,54.58 -19.27,-6.42 -37.05,1.59 -56.78,-2.61 -14.79,-3.15 -29.02,-13.94 -44.7,-6.54 -28.04,13.25 -24.56,23.83 -57.76,15.69 -32.27,-7.92 -55.64,-1.51 -88.1,-18.96 -40.61,11.79 -56.4,-9.5 -89.41,-30.07 -26.68,-16.63 -115.4,-51.69 -126.28,-79.09 -16.39,-41.33 -74.68,-74.63 -104.41,-109.81 -1.12,-35.51 -34.28,-30.89 -44.38,-52.62 -8.93,-19.21 -3.23,-35.43 -26.1,-41.18 -28.91,-7.27 -21.14,-50.88 -36.87,-69.62 -22.14,-26.35 -26.92,-55.52 -46.01,-85.62 1.11,-17.44 -25.46,-30.99 -30.35,-47.73 -4.97,-17 1.22,-37.07 -9.14,-52.94 -16.05,-24.63 -26.71,-39.19 -19.9,-70.27 7.24,-33.05 -4.41,-58.47 -13.05,-89.55 1.64,-17.45 -7.12,-40.12 -6.53,-60.46 3.17,-110.24 33.71,-250.95 110.62,-335.33 21.9,-24.05 33.09,-42.37 44.37,-72.88 9.84,-26.62 41.54,-49.45 58.41,-71.91 14.53,-13.36 25.83,-40.28 36.22,-57.52 11.5,-19.09 22.59,-35.51 37.2,-52.61 18.24,-21.35 37.91,-37.98 50.9,-63.74 41.07,-81.38 -10.55,-149.15 -44.05,-219.3 -21.42,-44.85 -56.37,-87.45 -85.81,-127.79 -16.43,-33.99 -53.17,-87.51 -81.58,-112.75 -57.61,-51.24 -165.38,-194.22 -237.22,-262.45 -30.83,-29.29 -93.26,-52.87 -130.2,-80.07 -41.11,-20.56 -81.8,-48.24 -119.75,-73.54 -23.79,-15.86 -260.15,-186.15 -261.69,-186.95 -23.16,-12.1 -41.52,-25.53 -60.04,-44.12 -13.95,-13.99 -71.5,1.64 -91.69,1.64 -26.76,-8.9 -68.48,-50.61 -83.86,-74.19 -14.91,-22.86 -87.38,-15.48 -117.8,-41.18 -32.56,-27.51 -46.48,-14.77 -82.22,-30.73 -58.36,-26.04 -171.35,-123.58 -207.86,-135.3 -12.1,-3.89 -26.22,-4.71 -35.57,-14.06 -13.95,-13.95 -12.86,-31.66 -23.17,-45.75 -11.07,-45.03 -25.05,-61.33 -58.73,-93.15 -30.06,-28.41 -78.47,-42.05 -103.11,-76.15 -16.83,-23.29 -20.82,-56.33 -32.3,-82.69 -7.84,-17.65 -29.04,-32.81 -29.04,-54.25 0,-23.15 15.18,-33.58 22.84,-53.6 5.18,-13.55 -6.73,-30.06 3.91,-39.88 13.52,-12.47 44.54,-0.97 49.6,-26.47 1.99,-10.05 0.05,-64.61 -7.5,-69.29 -13.67,-8.47 -14.72,-16.83 -24.81,-24.83 -3.45,-9.61 -7.2,-19.74 -13.7,-27.79 -6.62,-8.21 -19.75,-12.73 -24.47,-21.24 -14.38,-25.92 30.65,-9.72 41.44,-11.11 13.86,-1.79 26.7,-7.03 38.83,-14.05 15.82,-9.18 31.47,13.96 50.57,-11.11 5.18,-6.79 30.9,-53.81 30.68,-59.16 -0.53,-12.67 -0.57,-26.98 16.31,-28.43 15.88,-1.37 23.95,-13.55 20.88,-28.77 0.79,-0.99 1.69,-1.76 2.62,-2.61 -11.34,-33.76 -32.54,-40.29 -17.95,-79.75 11.43,-30.9 -3.53,-48.95 6.52,-79.09 7.25,-21.75 2.39,-33.09 0.33,-54.25 -1.58,-16.24 10.52,-28.19 9.78,-41.28l-0.01 -0.25c-20.76,-4.79 -41.66,-8.96 -62.26,-14.36 -50.3,-13.19 -105.98,-27.51 -157.93,-17.65 -56.88,10.8 -102.5,42.97 -159.24,52.29 -58.6,9.63 -117.56,-73.35 -135.09,-126.16 -7.29,-21.95 -20.59,-30.46 -37.1,-32.88 -39.12,-5.72 -96.39,22.66 -135.19,-12.87 -30.83,-28.23 -31.83,-73.13 -75.05,-95.44 -20.2,-10.42 -56.9,-0.35 -70.49,-10.46 -24.8,-18.45 -24.09,-39.69 -58.73,-52.94 -68.74,-26.31 -95.82,2.83 -158.58,0 -52.5,-2.37 -186.35,-70.99 -187.96,-108.51 -1.21,-28.24 28.89,-102.1 -4.57,-110.47 -11.01,-2.75 -25.48,-3.39 -41.75,-2.58 -53.18,2.64 -124.56,34.08 -161.21,30.69 -76.52,-7.08 -81.61,-77.3 -107.03,-137.92 -49.88,-118.91 -130.06,50.33 -175.56,50.33 -45.83,0 -77.28,-65.42 -101.15,-98.05 -47.74,-65.26 -142.44,25.13 -172.29,-64.71 -7.65,-23.03 -14.99,-77.85 -31.33,-92.82 -26.69,-24.46 -48.65,-15.65 -78.31,-24.84 -29.42,-9.12 -37.48,-33.95 -53.51,-56.21 -35.29,-49 -92.81,-8.16 -136.4,-27.46 -40.43,-17.89 -64,-58.29 -80.93,-96.74 -30.82,-70.02 -5.69,-58.26 -84.19,-77.78 -35.37,-8.8 -39.69,-36.21 -60.69,-58.18 -32.12,-33.61 -34.4,-54.82 -77.66,-76.48 -15.85,-7.93 -22.99,-22.23 -32.74,-35.61 -45.33,31.17 -14.8,71.93 -54.38,101.63 -27.5,20.66 -35.63,50.33 -38.5,82.69 -7.95,17.91 -12.21,36.13 -22.51,52.95 -10.08,16.44 -29.4,27.04 -44.06,38.89 -42.65,34.51 -52.37,50.26 -65.91,102.3 -6.43,24.68 5.62,46.06 7.83,69.28 -4.35,19.24 -9.74,40.13 -31,47.07 -17.06,5.57 -33.93,18.63 -33.93,38.56 0,67.23 9.54,74.66 -63.63,88.57 -30.45,5.79 -45.33,20.2 -72.44,-0.98 -26.04,-20.33 -62.55,-26.58 -93,-33.98 -27.27,-18.31 -44.7,-56.36 -73.09,-70.27 -37.19,-18.22 -75.67,3.27 -116.16,-1.96 -71.37,-9.22 -66.23,-82.63 -147.82,-41.84 -24.99,12.5 -57.61,45.58 -65.61,72.56l0.25 69.15 -1162.63 1303.39 -1636.05 7.53 0 0 -631.86 2.9 0.14 971.02 0 0 1.08 7541.73 0 0 0.35 2486.38c49.04,-1.2 277.42,-5.19 305.96,20.39 42.67,38.23 100.42,66.08 152.71,78.44 38.15,9.02 8.79,62.1 52.86,62.1 73.97,0 275.18,263.52 306.08,337.94 8.74,21.08 27.55,110.15 55.87,105.57z"/>
  <polygon class="fil1" points="1454.59,5082.58 3367.55,5082.58 3367.55,5765.21 2854.25,5765.21 2854.25,5527.09 2198.08,5527.09 2198.08,5963.65 2391.23,5963.65 2391.23,5786.38 2708.73,5786.38 2708.73,6572.22 2391.24,6572.22 2391.24,6331.45 2198.08,6331.45 2198.08,6887.08 2510.3,6887.08 2510.3,7334.22 1492.33,7334.22 1492.33,6887.08 1743.02,6887.08 1743.02,5527.1 1454.59,5527.09 "/>
  <path class="fil1" d="M3616.96 5082.59l1166.82 0c295.91,0 535.8,310.62 535.8,693.78 0,383.16 -239.89,693.78 -535.8,693.78l-0.6 -0.01 -422.73 0 0 416.94 305.59 0 0 447.14 -1049.08 0 0 -447.14 283.11 0 0 -1359.98 -283.11 0 0 -444.51zm743.49 444.51l0 503.87 370.95 0c76.43,0 138.38,-112.79 138.38,-251.94 0,-139.15 -61.95,-251.94 -138.38,-251.94l-370.95 0.01z"/>
  <path class="fil2 str1" d="M3825.04 3280.53l75.03 -2029.27 187.42 0 206.54 0 92.1 1746.66m1423.43 473.6l77.01 -2003.08 220.49 0 79.37 2003.08m357.19 0l44.1 -1275.48 110.24 0 114.65 1275.48m-2916.17 -2121.96l403.01 0m-406.18 85.83l411 0m-414.8 102.59l420.44 0m-424.55 111.19l429.6 0m-433.27 99.25l438.75 0m-443.03 115.93l449.22 0m-453.05 103.53l458.41 0m-462.28 104.68l467.51 0m-471.42 95.76l476.88 0m-481.12 124.63l487.22 0m-490.93 100.31l496.23 0m-500.27 109.24l506.64 0m-510.63 108.01l516.12 0m-519.84 100.55l524.55 0m-528.42 104.56l154.86 0 379.62 0m-538.43 107.08l158.81 0 385.38 0m-548.55 117.8l460.11 0m-463.74 98.14l166.81 0 296.93 0m-468.1 118.06l468.1 0m-409.18 104.19l409.18 0m-109.51 0l0 110.63m-77.17 -214.82l0 104.19m97.01 -222.25l0 118.06m-188.52 -118.06l0 118.06m196.24 -334l0 117.8m-110.83 0l0 98.14m-161.18 -98.14l0 98.14m97.4 -215.94l0 117.8m133.78 -224.88l0 107.08m-204.16 -107.08l0 107.08m326.94 -211.64l0 104.56m-206.56 -104.56l0 104.56m-90.4 -205.1l0 100.54m174.18 -100.54l0 100.54m122.78 -208.55l0 108.01m-206.56 -108.01l0 108.01m83.78 -217.26l0 109.25m-174.18 -109.25l0 109.25m90.4 -209.56l0 100.31m83.78 -224.93l0 124.62m-174.18 -124.62l0 124.62m90.4 -220.39l0 95.77m83.78 -200.45l0 104.68m-174.18 -104.68l0 104.68m90.4 -208.2l0 103.52m-90.4 -219.46l0 115.94m174.18 -115.94l0 115.94m-83.78 -215.19l0 99.25m83.78 -210.44l0 111.19m-174.18 -111.19l0 111.19m90.4 -213.78l0 102.59m83.78 -188.42l0 85.83m-174.18 -85.83l0 85.83m90.42 -184.13l-0.02 98.3m-187.4 -98.3l-46.25 0 0 -132.19 478.46 0 0 128.98 -38.25 0m-1902.8 4538.34l463.75 -184.58m-146.25 184.58l146.64 -61.74m512.18 40.57l503.35 -238.55m-1672.82 1360.42l1703.08 -968.03m-1390.86 968.03l1392.33 -834.76m-1392.33 1281.9l1389.98 -942.45m-2407.95 495.31l250.07 -127.2m3118.83 -1062.11l-500.78 333.2m0 856.11l3846.77 -3415.57 -3541.18 3415.57m0 447.14l3541.18 -3862.71m-5747.2 280.62l4532.14 0m-4532.14 589.61l2076.24 0m-1451.09 -589.61l0 589.61m814.91 -589.61l0 589.61m955.6 -589.61l0 509.58m-2146.94 -107.84l193.43 0m449.94 0l196.08 0m68.78 928.72l4590.26 -1611.08m-7036.31 356.94l129.65 -566.78 240.77 0 131.56 566.78 -501.98 0zm-285.16 273.75l1574.27 0m-1574.27 367.77l1574.27 0m-1244.51 -836.47l276.83 194.95 154.07 -114.09m-395.96 -233.59l403.35 265.42m-385.02 82.26l347.97 -241.88m-327.74 -274.37l307.07 185.3m-39.93 -172.01l-317.38 206.32m345.71 -84.25l-380.84 237.85m-317.89 1169.62l0 768.52 857.28 0m-288.43 -540.97l6752.62 -1611.07 -4839.66 1611.07m-907.54 -1254.13l0 -830.54 248.72 0 333.81 473.6 309.56 0 0 -473.6 262.62 0 352.46 473.6 326.85 0 0 -473.6 262.62 0 352.46 473.6 326.85 0 0 -473.6 244.91 0 328.69 473.6 2397.66 0m-7195.35 2152.04l0 -768.52m302.52 768.52l0 -768.52m-428.64 -1026.58l1574.27 0 0 1026.58 -1574.27 0 0 -1026.58zm238.13 -1080.07l566.8 0 0 513.29 -566.8 0 0 -513.29zm7193.72 560.11c77.93,0 141.11,63.18 141.11,141.11 0,77.93 -63.18,141.11 -141.11,141.11 -77.93,0 -141.11,-63.18 -141.11,-141.11 0,-77.93 63.18,-141.11 141.11,-141.11z"/>
 </g>
</svg>
